<svg xmlns="http://www.w3.org/2000/svg" xmlns:xlink="http://www.w3.org/1999/xlink" width="1440" height="245" viewBox="0 0 1440 245">
    <defs>
        <path id="5p7myn6uca" d="M0 0H1440V245H0z"/>
    </defs>
    <g fill="none" fill-rule="evenodd">
        <g>
            <g transform="translate(0 -597) translate(0 597)">
                <mask id="cpdo93akbb" fill="#fff">
                    <use xlink:href="#5p7myn6uca"/>
                </mask>
                <g mask="url(#cpdo93akbb)" opacity=".163">
                    <g>
                        <g>
                            <g>
                                <path fill="#5FA55A" d="M50.487 26.22l-16.035-5.147c-3.197-1.026-5.067-4.811-4.155-8.41.911-3.6 4.273-5.706 7.47-4.68L53.8 13.132c3.197 1.026 5.067 4.811 4.156 8.41-.912 3.6-4.273 5.706-7.47 4.68" transform="translate(-973 -312) rotate(-4 5675.891 -13198.128) translate(512.947 47.189)"/>
                                <path fill="#477C44" d="M23.323 18.939L7.29 13.79C4.092 12.765 2.222 8.98 3.133 5.38c.912-3.6 4.273-5.705 7.47-4.679L26.638 5.85c3.197 1.026 5.067 4.811 4.155 8.41-.911 3.6-4.273 5.706-7.47 4.68" transform="translate(-973 -312) rotate(-4 5675.891 -13198.128) translate(512.947 47.189)"/>
                            </g>
                            <path fill="#BB671C" d="M142.976 179.191c2.928-11.277 14.439-18.045 25.71-15.115 11.272 2.928 18.036 14.445 15.109 25.722-2.928 11.278-14.439 18.045-25.71 15.116-11.272-2.929-18.036-14.445-15.109-25.723" transform="translate(-973 -312) rotate(-4 5675.891 -13198.128)"/>
                            <path fill="#FA8925" d="M184.047 170.783c2.928-11.278 14.438-18.045 25.71-15.116 11.271 2.929 18.035 14.445 15.108 25.723-2.928 11.277-14.438 18.045-25.71 15.115-11.271-2.928-18.036-14.445-15.108-25.722" transform="translate(-973 -312) rotate(-4 5675.891 -13198.128)"/>
                            <path fill="#FBA151" d="M212.098 192.867c2.928-11.277 14.438-18.045 25.71-15.116 11.272 2.93 18.036 14.446 15.109 25.723-2.928 11.277-14.439 18.045-25.71 15.116-11.272-2.929-18.036-14.446-15.109-25.723" transform="translate(-973 -312) rotate(-4 5675.891 -13198.128)"/>
                            <path fill="#FCB87C" d="M231.983 227.327c2.928-11.278 14.439-18.045 25.71-15.116 11.272 2.929 18.036 14.445 15.109 25.723-2.928 11.277-14.439 18.044-25.71 15.115-11.272-2.929-18.036-14.445-15.109-25.722" transform="translate(-973 -312) rotate(-4 5675.891 -13198.128)"/>
                            <path fill="#5F5F7E" d="M465.002 105.87c5.62-3.218 12.775 2.154 15.98 11.998 3.206 9.844 1.25 20.433-4.37 23.65-5.62 3.219-12.776-2.152-15.982-11.997-3.206-9.843-1.249-20.432 4.372-23.65" transform="translate(-973 -312) rotate(-4 5675.891 -13198.128)"/>
                            <path fill="#7E7EA8" d="M478.258 128.844c5.62-3.219 12.775 2.153 15.981 11.997 3.206 9.844 1.25 20.433-4.371 23.65-5.62 3.218-12.775-2.152-15.981-11.997-3.206-9.843-1.249-20.432 4.371-23.65" transform="translate(-973 -312) rotate(-4 5675.891 -13198.128)"/>
                            <path fill="#9898B9" d="M623.241 252.098c-6.366 8.904-21.847 10.027-34.577 2.508-12.732-7.52-17.891-20.833-11.525-29.737 6.365-8.904 21.846-10.026 34.578-2.507 12.73 7.519 17.89 20.832 11.524 29.736" transform="translate(-973 -312) rotate(-4 5675.891 -13198.128)"/>
                            <path fill="#BB3F41" d="M354.111 143.988c-3.125 5.669-10.25 7.73-15.916 4.604-5.666-3.127-7.726-10.256-4.601-15.924 3.125-5.67 10.25-7.73 15.916-4.604 5.666 3.127 7.726 10.256 4.601 15.924" transform="translate(-973 -312) rotate(-4 5675.891 -13198.128)"/>
                            <path fill="#FB7679" d="M347.808 113.17c-3.125 5.669-10.25 7.73-15.916 4.604-5.666-3.127-7.726-10.256-4.601-15.925 3.124-5.668 10.25-7.73 15.916-4.603 5.665 3.126 7.725 10.256 4.6 15.924" transform="translate(-973 -312) rotate(-4 5675.891 -13198.128)"/>
                            <path fill="#FC989A" d="M368.018 128.298c-3.125 5.668-10.251 7.73-15.916 4.603-5.666-3.126-7.726-10.256-4.601-15.924 3.124-5.669 10.25-7.73 15.916-4.603 5.665 3.126 7.726 10.255 4.6 15.924" transform="translate(-973 -312) rotate(-4 5675.891 -13198.128)"/>
                            <path fill="#FA5457" d="M336.002 139.134c-3.125 5.668-10.25 7.73-15.916 4.603-5.666-3.126-7.726-10.256-4.601-15.924 3.125-5.669 10.25-7.73 15.916-4.604 5.666 3.127 7.726 10.256 4.601 15.925" transform="translate(-973 -312) rotate(-4 5675.891 -13198.128)"/>
                            <path fill="#B9A017" d="M832 186.591c.895 1.472 1.069 3.148 1.414 4.763 1.872 8.739 9.54 16.534 19.685 20.01 3.745 1.283 8.469 1.888 11.582-.22 4.165-2.822 2.588-8.233.106-12.13-3.229-5.072-7.663-9.933-14.016-12.456-2.414-.96-5.074-1.569-7.23-2.866-3.795-2.284-5.307-6.198-7.07-9.736-1.763-3.537-4.528-7.29-9.143-8.158-4.513-.849-9.384 1.743-10.82 5.286-4.538 11.21 11.311 8.621 15.493 15.507" transform="translate(-973 -312) rotate(-4 5675.891 -13198.128)"/>
                            <path fill="#FB7679" d="M631.754 162.26c-3.91-10.974 1.81-23.042 12.78-26.956 10.967-3.913 23.03 1.81 26.942 12.785 3.91 10.974-1.81 23.043-12.779 26.957-10.969 3.913-23.031-1.811-26.943-12.785" transform="translate(-973 -312) rotate(-4 5675.891 -13198.128)"/>
                            <path fill="#FDBBBC" d="M672.825 153.852c-3.912-10.974 1.81-23.043 12.778-26.956 10.969-3.914 23.032 1.81 26.943 12.785 3.911 10.974-1.81 23.043-12.779 26.956-10.968 3.913-23.031-1.811-26.942-12.785" transform="translate(-973 -312) rotate(-4 5675.891 -13198.128)"/>
                            <path fill="#01B4BC" d="M812.022 118.185l-1.12-3.599c-.513-1.646-2.324-2.587-4.025-2.091l-17.737 5.177-1.332-19.683c-.116-1.716-1.662-3.028-3.434-2.916l-3.874.246c-1.772.113-3.127 1.609-3.011 3.325l1.638 24.188c.003.06.013.119.021.177l-41.19 53.912c-1.326 1.736-.944 4.208.85 5.493l1.373.984c1.794 1.284 4.346.915 5.673-.822l41.113-53.81 22.895-6.684c1.7-.496 2.673-2.25 2.16-3.897" transform="translate(-973 -312) rotate(-4 5675.891 -13198.128)"/>
                            <path fill="#99E1E4" d="M938.634 254.319l-1.695-2.353c-.632-.879-1.878-1.116-2.768-.527l-13.59 8.993-8.466-15.66c-.513-.947-1.72-1.338-2.685-.867l-3.033 1.478c-.965.471-1.334 1.63-.822 2.578l8.898 16.458-11.67 35.996c-.05.156-.091.312-.124.47l-14.335 8.64c-.916.551-1.178 1.741-.583 2.643l1.593 2.416c.596.903 1.832 1.19 2.747.638l14.068-8.479 9.506 15.697c.559.924 1.783 1.256 2.721.74l2.95-1.623c.939-.516 1.248-1.695.69-2.617l-9.576-15.813 11.706-36.108c.096-.296.158-.596.192-.896l13.808-9.136c.89-.59 1.1-1.79.468-2.668" transform="translate(-973 -312) rotate(-4 5675.891 -13198.128)"/>
                            <path fill="#01878D" d="M538.76 242.415l-19.062-1.512-25.985-29.724c-.112-.129-.23-.25-.352-.364l-.419-16.923c-.027-1.08-.948-1.958-2.047-1.95l-2.943.022c-1.1.008-1.977.899-1.95 1.98l.411 16.607-18.694-.578c-1.1-.033-2.012.823-2.029 1.903l-.05 3.397c-.016 1.08.87 1.992 1.97 2.027l18.83.58 26.066 29.817c.214.245.449.463.697.657l1.124 16.749c.073 1.079 1.03 1.919 2.127 1.866l2.937-.142c1.097-.053 1.936-.98 1.863-2.06l-1.106-16.484 18.136 1.438c1.098.087 2.053-.723 2.122-1.8l.221-3.389c.07-1.077-.77-2.03-1.868-2.117" transform="translate(-973 -312) rotate(-4 5675.891 -13198.128)"/>
                            <path fill="#01B4BC" d="M96.19 212.265l.303 1.025c.115.389.57.624 1.012.524l8.267-1.883-3.462 6.006c-.207.357-.042.799.365.98l1.426.636c.408.18.91.036 1.116-.322l9.606-16.663c.207-.358.042-.8-.365-.98l-1.426-.636c-.407-.181-.91-.037-1.116.321l-4.418 7.663-10.711 2.44c-.443.1-.71.5-.596.889" transform="translate(-973 -312) rotate(-4 5675.891 -13198.128)"/>
                        </g>
                        <g>
                            <path fill="#FA8925" d="M1027.673 407.672c-10.817 8.419-27.09 7.268-36.346-2.571-9.256-9.839-7.99-24.639 2.827-33.058s27.09-7.268 36.345 2.57c9.256 9.84 7.991 24.64-2.826 33.059" transform="translate(-973 -312) rotate(-4 1085.27 31.002)"/>
                            <path fill="#7FB77B" d="M1025.06 479.437l-39.558 48.605c-2.937 3.608-8.23 4.107-11.763 1.107-3.532-3-4.02-8.408-1.082-12.016l39.557-48.606c2.937-3.608 8.23-4.106 11.763-1.106 3.532 3 4.02 8.407 1.082 12.016" transform="translate(-973 -312) rotate(-4 1085.27 31.002)"/>
                        </g>
                        <g>
                            <g>
                                <path fill="#5FA55A" d="M50.487 26.22l-16.035-5.147c-3.197-1.026-5.067-4.811-4.155-8.41.911-3.6 4.273-5.706 7.47-4.68L53.8 13.132c3.197 1.026 5.067 4.811 4.156 8.41-.912 3.6-4.273 5.706-7.47 4.68" transform="translate(-973 -312) rotate(-3 6601.848 -34760.108) translate(512.947 49.189)"/>
                                <path fill="#477C44" d="M23.323 18.939L7.29 13.79C4.092 12.765 2.222 8.98 3.133 5.38c.912-3.6 4.273-5.705 7.47-4.679L26.638 5.85c3.197 1.026 5.067 4.811 4.155 8.41-.911 3.6-4.273 5.706-7.47 4.68" transform="translate(-973 -312) rotate(-3 6601.848 -34760.108) translate(512.947 49.189)"/>
                            </g>
                            <path fill="#BB671C" d="M142.976 181.191c2.928-11.277 14.439-18.045 25.71-15.115 11.272 2.928 18.036 14.445 15.109 25.722-2.928 11.278-14.439 18.045-25.71 15.116-11.272-2.929-18.036-14.445-15.109-25.723" transform="translate(-973 -312) rotate(-3 6601.848 -34760.108)"/>
                            <path fill="#FA8925" d="M184.047 172.783c2.928-11.278 14.438-18.045 25.71-15.116 11.271 2.929 18.035 14.445 15.108 25.723-2.928 11.277-14.438 18.045-25.71 15.115-11.271-2.928-18.036-14.445-15.108-25.722" transform="translate(-973 -312) rotate(-3 6601.848 -34760.108)"/>
                            <path fill="#FBA151" d="M212.098 194.867c2.928-11.277 14.438-18.045 25.71-15.116 11.272 2.93 18.036 14.446 15.109 25.723-2.928 11.277-14.439 18.045-25.71 15.116-11.272-2.929-18.036-14.446-15.109-25.723" transform="translate(-973 -312) rotate(-3 6601.848 -34760.108)"/>
                            <path fill="#FCB87C" d="M231.983 229.327c2.928-11.278 14.439-18.045 25.71-15.116 11.272 2.929 18.036 14.445 15.109 25.723-2.928 11.277-14.439 18.044-25.71 15.115-11.272-2.929-18.036-14.445-15.109-25.722" transform="translate(-973 -312) rotate(-3 6601.848 -34760.108)"/>
                            <path fill="#FDD0A8" d="M263.674 237.822c2.928-11.277 14.438-18.045 25.71-15.116 11.272 2.93 18.036 14.446 15.108 25.723-2.927 11.278-14.438 18.045-25.71 15.116-11.271-2.929-18.035-14.445-15.108-25.723" transform="translate(-973 -312) rotate(-3 6601.848 -34760.108)"/>
                            <path fill="#5F5F7E" d="M465.002 107.87c5.62-3.218 12.775 2.154 15.98 11.998 3.206 9.844 1.25 20.433-4.37 23.65-5.62 3.219-12.776-2.152-15.982-11.997-3.206-9.843-1.249-20.432 4.372-23.65" transform="translate(-973 -312) rotate(-3 6601.848 -34760.108)"/>
                            <path fill="#7E7EA8" d="M478.258 130.844c5.62-3.219 12.775 2.153 15.981 11.997 3.206 9.844 1.25 20.433-4.371 23.65-5.62 3.218-12.775-2.152-15.981-11.997-3.206-9.843-1.249-20.432 4.371-23.65" transform="translate(-973 -312) rotate(-3 6601.848 -34760.108)"/>
                            <path fill="#BB3F41" d="M354.111 145.988c-3.125 5.669-10.25 7.73-15.916 4.604-5.666-3.127-7.726-10.256-4.601-15.924 3.125-5.67 10.25-7.73 15.916-4.604 5.666 3.127 7.726 10.256 4.601 15.924" transform="translate(-973 -312) rotate(-3 6601.848 -34760.108)"/>
                            <path fill="#FB7679" d="M347.808 115.17c-3.125 5.669-10.25 7.73-15.916 4.604-5.666-3.127-7.726-10.256-4.601-15.925 3.124-5.668 10.25-7.73 15.916-4.603 5.665 3.126 7.725 10.256 4.6 15.924" transform="translate(-973 -312) rotate(-3 6601.848 -34760.108)"/>
                            <path fill="#FC989A" d="M368.018 130.298c-3.125 5.668-10.251 7.73-15.916 4.603-5.666-3.126-7.726-10.256-4.601-15.924 3.124-5.669 10.25-7.73 15.916-4.603 5.665 3.126 7.726 10.255 4.6 15.924" transform="translate(-973 -312) rotate(-3 6601.848 -34760.108)"/>
                            <path fill="#FA5457" d="M336.002 141.134c-3.125 5.668-10.25 7.73-15.916 4.603-5.666-3.126-7.726-10.256-4.601-15.924 3.125-5.669 10.25-7.73 15.916-4.604 5.666 3.127 7.726 10.256 4.601 15.925" transform="translate(-973 -312) rotate(-3 6601.848 -34760.108)"/>
                            <path fill="#01878D" d="M538.76 244.415l-19.062-1.512-25.985-29.724c-.112-.129-.23-.25-.352-.364l-.419-16.923c-.027-1.08-.948-1.958-2.047-1.95l-2.943.022c-1.1.008-1.977.899-1.95 1.98l.411 16.607-18.694-.578c-1.1-.033-2.012.823-2.029 1.903l-.05 3.397c-.016 1.08.87 1.992 1.97 2.027l18.83.58 26.066 29.817c.214.245.449.463.697.657l1.124 16.749c.073 1.079 1.03 1.919 2.127 1.866l2.937-.142c1.097-.053 1.936-.98 1.863-2.06l-1.106-16.484 18.136 1.438c1.098.087 2.053-.723 2.122-1.8l.221-3.389c.07-1.077-.77-2.03-1.868-2.117" transform="translate(-973 -312) rotate(-3 6601.848 -34760.108)"/>
                            <path fill="#01B4BC" d="M96.19 214.265l.303 1.025c.115.389.57.624 1.012.524l8.267-1.883-3.462 6.006c-.207.357-.042.799.365.98l1.426.636c.408.18.91.036 1.116-.322l9.606-16.663c.207-.358.042-.8-.365-.98l-1.426-.636c-.407-.181-.91-.037-1.116.321l-4.418 7.663-10.711 2.44c-.443.1-.71.5-.596.889" transform="translate(-973 -312) rotate(-3 6601.848 -34760.108)"/>
                        </g>
                    </g>
                </g>
            </g>
        </g>
    </g>
</svg>
